<mxfile host="65bd71144e">
    <diagram id="8bF8J5bt0PdqWJPGgKOW" name="Aufgabe_1a">
        <mxGraphModel dx="782" dy="284" grid="1" gridSize="10" guides="1" tooltips="1" connect="1" arrows="1" fold="1" page="1" pageScale="1" pageWidth="827" pageHeight="1169" math="0" shadow="0">
            <root>
                <mxCell id="0"/>
                <mxCell id="1" parent="0"/>
                <mxCell id="2" value="Person" style="swimlane;childLayout=stackLayout;horizontal=1;startSize=30;horizontalStack=0;rounded=1;fontSize=14;fontStyle=0;strokeWidth=2;resizeParent=0;resizeLast=1;shadow=0;dashed=0;align=center;" vertex="1" parent="1">
                    <mxGeometry x="40" y="50" width="130" height="90" as="geometry"/>
                </mxCell>
                <mxCell id="3" value="-ID&#xA;-Vorname&#xA;-Nachname&#xA;" style="align=left;strokeColor=none;fillColor=none;spacingLeft=4;fontSize=12;verticalAlign=top;resizable=0;rotatable=0;part=1;" vertex="1" parent="2">
                    <mxGeometry y="30" width="130" height="60" as="geometry"/>
                </mxCell>
                <mxCell id="4" value="Ausweiß" style="swimlane;childLayout=stackLayout;horizontal=1;startSize=30;horizontalStack=0;rounded=1;fontSize=14;fontStyle=0;strokeWidth=2;resizeParent=0;resizeLast=1;shadow=0;dashed=0;align=center;" vertex="1" parent="1">
                    <mxGeometry x="300" y="50" width="130" height="90" as="geometry"/>
                </mxCell>
                <mxCell id="5" value="-ID&#xA;-Ausweißnr.&#xA;-Datum&#xA;" style="align=left;strokeColor=none;fillColor=none;spacingLeft=4;fontSize=12;verticalAlign=top;resizable=0;rotatable=0;part=1;" vertex="1" parent="4">
                    <mxGeometry y="30" width="130" height="60" as="geometry"/>
                </mxCell>
                <mxCell id="6" value="" style="line;strokeWidth=1;rotatable=0;dashed=0;labelPosition=right;align=left;verticalAlign=middle;spacingTop=0;spacingLeft=6;points=[];portConstraint=eastwest;" vertex="1" parent="1">
                    <mxGeometry x="170" y="90" width="130" height="10" as="geometry"/>
                </mxCell>
                <mxCell id="7" value="1" style="text;html=1;resizable=0;autosize=1;align=center;verticalAlign=middle;points=[];fillColor=none;strokeColor=none;rounded=0;" vertex="1" parent="1">
                    <mxGeometry x="170" y="70" width="20" height="20" as="geometry"/>
                </mxCell>
                <mxCell id="8" value="1" style="text;html=1;resizable=0;autosize=1;align=center;verticalAlign=middle;points=[];fillColor=none;strokeColor=none;rounded=0;" vertex="1" parent="1">
                    <mxGeometry x="280" y="70" width="20" height="20" as="geometry"/>
                </mxCell>
            </root>
        </mxGraphModel>
    </diagram>
    <diagram name="Aufgabe_1b" id="bL7xpphm9A832eFLmeDP">
        <mxGraphModel dx="782" dy="284" grid="1" gridSize="10" guides="1" tooltips="1" connect="1" arrows="1" fold="1" page="1" pageScale="1" pageWidth="827" pageHeight="1169" math="0" shadow="0">
            <root>
                <mxCell id="4VwpfrwYLHQ9zOgYxA3H-0"/>
                <mxCell id="4VwpfrwYLHQ9zOgYxA3H-1" parent="4VwpfrwYLHQ9zOgYxA3H-0"/>
                <mxCell id="4VwpfrwYLHQ9zOgYxA3H-2" value="Flugzeug" style="swimlane;childLayout=stackLayout;horizontal=1;startSize=30;horizontalStack=0;rounded=1;fontSize=14;fontStyle=0;strokeWidth=2;resizeParent=0;resizeLast=1;shadow=0;dashed=0;align=center;" vertex="1" parent="4VwpfrwYLHQ9zOgYxA3H-1">
                    <mxGeometry x="300" y="50" width="130" height="70" as="geometry"/>
                </mxCell>
                <mxCell id="4VwpfrwYLHQ9zOgYxA3H-3" value="-ID&#xA;-Flugnr.&#xA;&#xA;" style="align=left;strokeColor=none;fillColor=none;spacingLeft=4;fontSize=12;verticalAlign=top;resizable=0;rotatable=0;part=1;" vertex="1" parent="4VwpfrwYLHQ9zOgYxA3H-2">
                    <mxGeometry y="30" width="130" height="40" as="geometry"/>
                </mxCell>
                <mxCell id="4VwpfrwYLHQ9zOgYxA3H-4" value="Landeplatz" style="swimlane;childLayout=stackLayout;horizontal=1;startSize=30;horizontalStack=0;rounded=1;fontSize=14;fontStyle=0;strokeWidth=2;resizeParent=0;resizeLast=1;shadow=0;dashed=0;align=center;" vertex="1" parent="4VwpfrwYLHQ9zOgYxA3H-1">
                    <mxGeometry x="40" y="50" width="130" height="70" as="geometry"/>
                </mxCell>
                <mxCell id="4VwpfrwYLHQ9zOgYxA3H-5" value="-ID&#xA;-Ort&#xA;" style="align=left;strokeColor=none;fillColor=none;spacingLeft=4;fontSize=12;verticalAlign=top;resizable=0;rotatable=0;part=1;" vertex="1" parent="4VwpfrwYLHQ9zOgYxA3H-4">
                    <mxGeometry y="30" width="130" height="40" as="geometry"/>
                </mxCell>
                <mxCell id="4VwpfrwYLHQ9zOgYxA3H-6" value="" style="line;strokeWidth=1;rotatable=0;dashed=0;labelPosition=right;align=left;verticalAlign=middle;spacingTop=0;spacingLeft=6;points=[];portConstraint=eastwest;" vertex="1" parent="4VwpfrwYLHQ9zOgYxA3H-1">
                    <mxGeometry x="170" y="90" width="130" height="10" as="geometry"/>
                </mxCell>
                <mxCell id="4VwpfrwYLHQ9zOgYxA3H-7" value="1" style="text;html=1;resizable=0;autosize=1;align=center;verticalAlign=middle;points=[];fillColor=none;strokeColor=none;rounded=0;" vertex="1" parent="4VwpfrwYLHQ9zOgYxA3H-1">
                    <mxGeometry x="170" y="70" width="20" height="20" as="geometry"/>
                </mxCell>
                <mxCell id="4VwpfrwYLHQ9zOgYxA3H-8" value="n" style="text;html=1;resizable=0;autosize=1;align=center;verticalAlign=middle;points=[];fillColor=none;strokeColor=none;rounded=0;" vertex="1" parent="4VwpfrwYLHQ9zOgYxA3H-1">
                    <mxGeometry x="280" y="70" width="20" height="20" as="geometry"/>
                </mxCell>
            </root>
        </mxGraphModel>
    </diagram>
    <diagram name="Aufgabe_1d" id="501YtkT7q5zg2e3CCFyi">
        <mxGraphModel dx="782" dy="284" grid="1" gridSize="10" guides="1" tooltips="1" connect="1" arrows="1" fold="1" page="1" pageScale="1" pageWidth="827" pageHeight="1169" math="0" shadow="0">
            <root>
                <mxCell id="BPjVhRcj5HegYCOqcYRo-0"/>
                <mxCell id="BPjVhRcj5HegYCOqcYRo-1" parent="BPjVhRcj5HegYCOqcYRo-0"/>
                <mxCell id="BPjVhRcj5HegYCOqcYRo-2" value="Kellner" style="swimlane;childLayout=stackLayout;horizontal=1;startSize=30;horizontalStack=0;rounded=1;fontSize=14;fontStyle=0;strokeWidth=2;resizeParent=0;resizeLast=1;shadow=0;dashed=0;align=center;" vertex="1" parent="BPjVhRcj5HegYCOqcYRo-1">
                    <mxGeometry x="300" y="50" width="130" height="70" as="geometry"/>
                </mxCell>
                <mxCell id="BPjVhRcj5HegYCOqcYRo-4" value="Kunde" style="swimlane;childLayout=stackLayout;horizontal=1;startSize=30;horizontalStack=0;rounded=1;fontSize=14;fontStyle=0;strokeWidth=2;resizeParent=0;resizeLast=1;shadow=0;dashed=0;align=center;" vertex="1" parent="BPjVhRcj5HegYCOqcYRo-1">
                    <mxGeometry x="40" y="50" width="130" height="70" as="geometry"/>
                </mxCell>
                <mxCell id="BPjVhRcj5HegYCOqcYRo-6" value="" style="line;strokeWidth=1;rotatable=0;dashed=0;labelPosition=right;align=left;verticalAlign=middle;spacingTop=0;spacingLeft=6;points=[];portConstraint=eastwest;" vertex="1" parent="BPjVhRcj5HegYCOqcYRo-1">
                    <mxGeometry x="170" y="90" width="130" height="10" as="geometry"/>
                </mxCell>
                <mxCell id="BPjVhRcj5HegYCOqcYRo-7" value="n" style="text;html=1;resizable=0;autosize=1;align=center;verticalAlign=middle;points=[];fillColor=none;strokeColor=none;rounded=0;" vertex="1" parent="BPjVhRcj5HegYCOqcYRo-1">
                    <mxGeometry x="170" y="70" width="20" height="20" as="geometry"/>
                </mxCell>
                <mxCell id="BPjVhRcj5HegYCOqcYRo-8" value="m" style="text;html=1;resizable=0;autosize=1;align=center;verticalAlign=middle;points=[];fillColor=none;strokeColor=none;rounded=0;" vertex="1" parent="BPjVhRcj5HegYCOqcYRo-1">
                    <mxGeometry x="275" y="70" width="30" height="20" as="geometry"/>
                </mxCell>
            </root>
        </mxGraphModel>
    </diagram>
    <diagram name="Aufgabe_1e" id="yupVls34_xUEB1TCzymE">
        <mxGraphModel dx="782" dy="284" grid="1" gridSize="10" guides="1" tooltips="1" connect="1" arrows="1" fold="1" page="1" pageScale="1" pageWidth="827" pageHeight="1169" math="0" shadow="0">
            <root>
                <mxCell id="nBTT0-i10sxPqewBsnjJ-0"/>
                <mxCell id="nBTT0-i10sxPqewBsnjJ-1" parent="nBTT0-i10sxPqewBsnjJ-0"/>
                <mxCell id="nBTT0-i10sxPqewBsnjJ-3" value="Mitarbeiter" style="swimlane;childLayout=stackLayout;horizontal=1;startSize=30;horizontalStack=0;rounded=1;fontSize=14;fontStyle=0;strokeWidth=2;resizeParent=0;resizeLast=1;shadow=0;dashed=0;align=center;" vertex="1" parent="nBTT0-i10sxPqewBsnjJ-1">
                    <mxGeometry x="40" y="50" width="130" height="70" as="geometry"/>
                </mxCell>
                <mxCell id="nBTT0-i10sxPqewBsnjJ-7" value="" style="shape=link;html=1;rounded=0;exitX=1;exitY=0.25;exitDx=0;exitDy=0;entryX=1;entryY=0.75;entryDx=0;entryDy=0;" edge="1" parent="nBTT0-i10sxPqewBsnjJ-1" source="nBTT0-i10sxPqewBsnjJ-3" target="nBTT0-i10sxPqewBsnjJ-3">
                    <mxGeometry relative="1" as="geometry">
                        <mxPoint x="320" y="150" as="sourcePoint"/>
                        <mxPoint x="220" y="100" as="targetPoint"/>
                        <Array as="points">
                            <mxPoint x="220" y="68"/>
                            <mxPoint x="220" y="103"/>
                        </Array>
                    </mxGeometry>
                </mxCell>
                <mxCell id="nBTT0-i10sxPqewBsnjJ-8" value="M" style="resizable=0;html=1;align=left;verticalAlign=bottom;" connectable="0" vertex="1" parent="nBTT0-i10sxPqewBsnjJ-7">
                    <mxGeometry x="-1" relative="1" as="geometry"/>
                </mxCell>
                <mxCell id="nBTT0-i10sxPqewBsnjJ-9" value="N" style="resizable=0;html=1;align=right;verticalAlign=bottom;" connectable="0" vertex="1" parent="nBTT0-i10sxPqewBsnjJ-7">
                    <mxGeometry x="1" relative="1" as="geometry"/>
                </mxCell>
            </root>
        </mxGraphModel>
    </diagram>
</mxfile>